<svg xmlns="http://www.w3.org/2000/svg" version="1.1" xmlns:xlink="http://www.w3.org/1999/xlink" xmlns:svgjs="http://svgjs.dev/svgjs" width="100%" height="100%" viewBox="0 0 1000 600"><rect width="1000" height="600" x="0" y="0" fill="#e4d09d"/><g><circle r="166.66666666666666" cx="321.284678141276" cy="343.5069199267714" fill="#b16f2b" transform="matrix(0.8084438622058778,0,0,0.8084438622058779,0,22.293951469305313)"/><path d="M187.05919744381762 418.5068802036301L187.05919744381762 418.5068802036301Q182.9800237663045 416.10584759598 181.86986890470283 413.3950043292782Q180.75971404310116 410.7099786174974 180.75971404310116 408.8511146631877L180.75971404310116 408.8511146631877Q180.75971404310116 403.6359685691519 184.55489461648364 394.7289121214175Q188.37589274478705 385.7960381187622 194.7786463651874 374.35886128877286Q201.2072175405087 362.94750201370454 209.0041191266414 350.65834587132326L209.0041191266414 350.65834587132326Q202.1366495176636 350.1161772179829 197.28294919252141 349.9354543335361Q192.45506642230018 349.72891389416833 188.9180613981274 349.72891389416833L188.9180613981274 349.72891389416833L182.41203755804318 349.72891389416833Q184.47744195172072 344.35886247060677 189.5893178260726 342.21600541216634Q194.70119370042448 340.0731483537259 201.74938619384906 340.0731483537259L201.74938619384906 340.0731483537259Q204.92494544912827 340.0731483537259 208.2554100339333 340.43459412261944Q211.61169217365926 340.821857446434 215.14869719783204 341.3640260997744L215.14869719783204 341.3640260997744Q224.62373985382771 327.06110067355746 234.5634984984008 313.5843370048116Q244.50325714297392 300.1075733360657 253.1521380414986 289.59982848323125Q261.80101894002325 279.0920836303968 267.55833368739934 273.72203220683525L267.55833368739934 273.72203220683525Q272.9542026658819 268.50688611279946 276.4912076900547 268.50688611279946L276.4912076900547 268.50688611279946Q278.53079452881127 268.50688611279946 281.03509735614523 270.0817569629786Q283.5394001834793 271.6566278131577 286.32769611494393 274.4449237446224L286.32769611494393 274.4449237446224Q284.4688321606342 275.9423419300386 281.6030835644066 282.34509555043894Q278.71151741325804 288.7736667257602 275.4585054932159 298.4294322662027Q272.20549357317384 308.1110153615661 269.05575187281556 319.62564485631833Q265.88019261753635 331.14027435107056 263.19516690575557 343.1454373893212Q260.4843236390538 355.1247828726509 258.9094527888747 365.916520829616Q257.3345819386956 376.6824412316601 257.3345819386956 384.86660614160735L257.3345819386956 384.86660614160735Q257.3345819386956 391.94061618995283 258.9094527888747 395.83906698301917Q260.4843236390538 399.73751777608555 264.20205154767336 399.73751777608555L264.20205154767336 399.73751777608555Q269.05575187281556 399.73751777608555 275.1745123890853 393.05077105155453Q281.3190904602759 386.36402432702357 288.5738233930682 372.2418217852534L288.5738233930682 372.2418217852534L290.43268734737796 374.10068573956323Q284.8560954844487 388.97159737404144 276.207214585924 398.4466400300371Q267.55833368739934 407.92168268603274 258.26401391585046 407.92168268603274L258.26401391585046 407.92168268603274Q250.6478352141646 407.92168268603274 247.2141004096757 401.13166574181787Q243.75454805026584 394.341648797603 243.75454805026584 383.00774218729754L243.75454805026584 383.00774218729754Q243.75454805026584 377.0697045554747 244.6065273626578 369.9956945071291Q245.43268912012883 362.94750201370454 246.93010730554505 355.30550575709765L246.93010730554505 355.30550575709765Q238.7459423955978 354.01462801104924 231.95592545138294 353.1884662535782Q225.16590850716807 352.3364869411862 219.40859375979193 351.58777784847814L219.40859375979193 351.58777784847814Q210.6822601965044 367.77538478392574 202.3948250668733 384.86660614160735Q194.13320749216317 401.9836450542099 187.05919744381762 418.5068802036301ZM248.2209850515935 348.79948191701345L248.2209850515935 348.79948191701345Q251.00928098305815 336.5361433295531 254.7270088916777 323.9888116379621Q258.4447368002973 311.44147994637115 262.6271806974943 300.1075733360657Q266.8096245946913 288.7736667257602 270.5273525033108 280.22805604691945L270.5273525033108 280.22805604691945Q264.7700377559347 283.73924351617126 257.2313117190117 292.77538773851046Q249.71840323700968 301.7857144059287 241.3535154426157 314.6944918664132Q232.98862764822172 327.62908688181875 224.23647653001316 343.0421671696373L224.23647653001316 343.0421671696373Q230.56177748565062 344.35886247060677 236.78380822160418 345.9337333207859Q243.0316565124787 347.508604170965 248.2209850515935 348.79948191701345ZM330.0109990412237 418.5068802036301L330.0109990412237 418.5068802036301Q327.97141220246715 418.5068802036301 325.2863864906863 417.8614413306059Q322.5755432239846 417.2160024575817 319.9679701769667 415.64113160740254Q317.3862146848698 414.0662607572234 315.7080736150068 411.17469460607487Q314.02993254514377 408.2831284549263 314.02993254514377 403.6359685691519L314.02993254514377 403.6359685691519Q314.02993254514377 397.1299447290677 317.17967424550204 386.44147699178643Q320.3552335007812 375.75300925450523 324.43440717829435 362.7409615743368L324.43440717829435 362.7409615743368Q327.6099664335735 352.7237502650008 330.578985249485 341.93201230803567Q333.54800406539647 331.14027435107056 335.51013823939013 320.37435394902644Q337.4464548584628 309.58261599206133 337.4464548584628 299.7461275671721L337.4464548584628 299.7461275671721Q337.4464548584628 292.8528404032734 336.98173886988536 286.91480277145047Q336.51702288130787 280.95094758470657 334.19344293842073 277.3364898957709Q331.8698629955335 273.72203220683525 326.2932711326041 273.72203220683525L326.2932711326041 273.72203220683525Q321.10394259348936 273.72203220683525 317.4636673496327 276.76850368750956Q313.84920966069706 279.8407927231049 311.5256297178098 284.66867549332613Q309.20204977492256 289.52237581846833 308.16934757808383 294.89242724202995Q307.162462936166 300.28829622051245 307.162462936166 304.9354561062869L307.162462936166 304.9354561062869Q307.162462936166 311.08003417747756 308.81478645110803 314.9784849705439L308.81478645110803 314.9784849705439Q301.5858710732367 314.9784849705439 298.5910347024043 310.9767639577937Q295.6220158864928 306.97504294504347 295.6220158864928 301.6049915214819L295.6220158864928 301.6049915214819Q295.6220158864928 295.82185921918483 298.3328591531946 290.0645444718087Q301.0178848649754 284.30722972443255 305.7683149704337 279.3760767345275Q310.492927520971 274.4449237446224 316.6375055921617 271.4759049287109Q322.75626610843136 268.50688611279946 329.6495532723301 268.50688611279946L329.6495532723301 268.50688611279946Q341.16418276708237 268.50688611279946 346.84404484969554 277.5172127802177Q352.4980893773878 286.52753944763595 352.4980893773878 301.6049915214819L352.4980893773878 301.6049915214819Q352.4980893773878 315.15920785499065 348.70290880400535 330.3141125935996Q344.8819106757019 345.4690173322084 340.2347507899275 359.7719427584253L340.2347507899275 359.7719427584253Q337.26573197401603 369.0662625299742 334.58070626223525 377.53442054405207Q331.8698629955335 385.976761003209 330.19172192567044 393.05077105155453Q328.5393984107285 400.1247810999001 328.5393984107285 405.4948325234617L328.5393984107285 405.4948325234617Q328.5393984107285 409.03183754763444 329.6495532723301 410.89070150194425Q330.7597081339318 412.749565456254 334.11599027365776 412.749565456254L334.11599027365776 412.749565456254Q338.7631501594322 412.749565456254 344.4171946871245 408.3863986746102Q350.0970567697377 404.0232318929664 355.95764173679765 396.58777607572733Q361.7924091489367 389.1523202584882 367.2915483471031 380.14199359107Q372.7648699903486 371.1058493687308 377.3345772113601 361.63080671273514Q381.8784668774507 352.15576405673943 384.950755913046 343.61015337789865Q388.0230449486413 335.0645426990579 388.7459364864285 328.9199646278672L388.7459364864285 328.9199646278672Q394.8905145576191 328.9199646278672 397.3948173849531 332.0697063282255Q399.89912021228713 335.24526558350465 399.89912021228713 338.03356151496934L399.89912021228713 338.03356151496934Q399.89912021228713 341.0025803308808 397.498087604637 347.14715840207145Q395.0712374420659 353.2659189183411 391.7407728572608 360.882097620027L391.7407728572608 360.882097620027Q388.9524769257962 367.594661899479 386.06091077464765 375.2108406011649Q383.1693446234991 382.8270193028508 381.23302800442644 390.44319800453667Q379.2708938304328 398.05937670622257 379.2708938304328 404.95266387012134L379.2708938304328 404.95266387012134Q379.2708938304328 408.4896688942941 380.20032580758766 410.6067083978136Q381.12975778474254 412.749565456254 384.4860399244685 412.749565456254L384.4860399244685 412.749565456254Q389.67536846358337 412.749565456254 396.56865562748214 407.4569666974553Q403.43612523645993 402.16436793865665 410.7941283889361 392.9475008318707Q418.12631398649125 383.75645128000565 425.097053815153 372.2418217852534Q432.06779364381464 360.70137473558026 437.644385506744 348.15404304398925Q443.2209773696733 335.60671135239824 446.57725950939925 323.52409564938466Q449.90772409420424 311.44147994637115 449.90772409420424 301.2177281976673L449.90772409420424 301.2177281976673Q449.90772409420424 291.9234084261185 447.1194281627396 287.5602416444747Q444.331132231275 283.1970748628309 439.6839723455005 281.8803795618615L439.6839723455005 281.8803795618615Q442.2915453925184 277.43976011545476 445.183111543667 275.37435572177725Q448.0488601398945 273.33476888302073 450.4757103024656 273.33476888302073L450.4757103024656 273.33476888302073Q454.3741610955319 273.33476888302073 458.09188900415154 278.36919209260964Q461.80961691277105 283.37779774727767 461.80961691277105 293.9629952648751L461.80961691277105 293.9629952648751Q461.80961691277105 304.1867470135788 457.9886187844676 317.19879469374723Q454.1934382110852 330.2108423739157 447.68741437100095 344.25559225092286Q441.1813905309167 358.3003421279301 432.8165027365227 371.4931126925453Q424.4516149421287 384.6858832571605 415.3380180550266 395.2710807747579Q406.22442116792456 405.8820958472762 397.3173647201902 412.20739680291365Q388.3844907175349 418.5068802036301 380.768312015849 418.5068802036301L380.768312015849 418.5068802036301Q377.2313069916762 418.5068802036301 373.5135790830567 417.03527957313486Q369.79585117443713 415.53786138771864 367.2915483471031 412.46557235212333Q364.7872455197691 409.41910087144896 364.7872455197691 404.56540054630676L364.7872455197691 404.56540054630676Q364.7872455197691 401.7771046148421 365.7941301616869 397.41393783319836Q366.8268323585256 393.05077105155453 368.50497342838867 387.8356249575188L368.50497342838867 387.8356249575188Q359.00411321747197 401.2349359615017 349.0643545728989 409.8838168600264Q339.1245959283258 418.5068802036301 330.0109990412237 418.5068802036301Z " fill="#c9a85b" transform="matrix(0.8084438622058778,0,0,0.8084438622058779,0,22.293951469305313)"/><path d="M576.367995601501 389.5485603328075L576.367995601501 389.5485603328075Q573.0763289348342 387.6110603328075 572.180495601501 385.4235603328075Q571.2846622681676 383.2568936661408 571.2846622681676 381.75689366614085L571.2846622681676 381.75689366614085Q571.2846622681676 377.5485603328075 574.3471622681676 370.3610603328075Q577.430495601501 363.15272699947417 582.5971622681676 353.9235603328075Q587.7846622681676 344.71522699947417 594.0763289348342 334.7985603328075L594.0763289348342 334.7985603328075Q588.5346622681676 334.3610603328075 584.617995601501 334.21522699947417Q580.7221622681676 334.0485603328075 577.867995601501 334.0485603328075L577.867995601501 334.0485603328075L572.617995601501 334.0485603328075Q574.2846622681676 329.71522699947417 578.4096622681676 327.9860603328075Q582.5346622681676 326.2568936661408 588.2221622681676 326.2568936661408L588.2221622681676 326.2568936661408Q590.7846622681676 326.2568936661408 593.4721622681676 326.5485603328075Q596.180495601501 326.8610603328075 599.0346622681676 327.2985603328075L599.0346622681676 327.2985603328075Q606.680495601501 315.7568936661408 614.7013289348342 304.8818936661408Q622.7221622681676 294.0068936661408 629.7013289348342 285.5277269994741Q636.680495601501 277.0485603328075 641.3263289348342 272.7152269994741L641.3263289348342 272.7152269994741Q645.680495601501 268.5068936661408 648.5346622681676 268.5068936661408L648.5346622681676 268.5068936661408Q650.180495601501 268.5068936661408 652.2013289348342 269.77772699947417Q654.2221622681676 271.0485603328075 656.4721622681676 273.2985603328075L656.4721622681676 273.2985603328075Q654.9721622681676 274.5068936661408 652.6596622681676 279.6735603328075Q650.3263289348342 284.8610603328075 647.7013289348342 292.6527269994741Q645.0763289348342 300.46522699947417 642.5346622681676 309.7568936661408Q639.9721622681676 319.0485603328075 637.805495601501 328.7360603328075Q635.617995601501 338.40272699947417 634.3471622681676 347.1110603328075Q633.0763289348342 355.7985603328075 633.0763289348342 362.40272699947417L633.0763289348342 362.40272699947417Q633.0763289348342 368.1110603328075 634.3471622681676 371.2568936661408Q635.617995601501 374.40272699947417 638.617995601501 374.40272699947417L638.617995601501 374.40272699947417Q642.5346622681676 374.40272699947417 647.4721622681676 369.0068936661408Q652.430495601501 363.6110603328075 658.2846622681676 352.21522699947417L658.2846622681676 352.21522699947417L659.7846622681676 353.71522699947417Q655.2846622681676 365.71522699947417 648.305495601501 373.3610603328075Q641.3263289348342 381.0068936661408 633.8263289348342 381.0068936661408L633.8263289348342 381.0068936661408Q627.680495601501 381.0068936661408 624.9096622681676 375.52772699947417Q622.117995601501 370.0485603328075 622.117995601501 360.90272699947417L622.117995601501 360.90272699947417Q622.117995601501 356.1110603328075 622.805495601501 350.40272699947417Q623.4721622681676 344.71522699947417 624.680495601501 338.5485603328075L624.680495601501 338.5485603328075Q618.0763289348342 337.5068936661408 612.5971622681676 336.84022699947417Q607.117995601501 336.1527269994741 602.4721622681676 335.5485603328075L602.4721622681676 335.5485603328075Q595.430495601501 348.6110603328075 588.742995601501 362.40272699947417Q582.0763289348342 376.21522699947417 576.367995601501 389.5485603328075ZM625.7221622681676 333.2985603328075L625.7221622681676 333.2985603328075Q627.9721622681676 323.40272699947417 630.9721622681676 313.27772699947417Q633.9721622681676 303.15272699947417 637.3471622681676 294.0068936661408Q640.7221622681676 284.8610603328075 643.7221622681676 277.96522699947417L643.7221622681676 277.96522699947417Q639.0763289348342 280.7985603328075 632.992995601501 288.09022699947417Q626.930495601501 295.3610603328075 620.180495601501 305.7777269994741Q613.430495601501 316.21522699947417 606.367995601501 328.65272699947417L606.367995601501 328.65272699947417Q611.4721622681676 329.71522699947417 616.492995601501 330.9860603328075Q621.5346622681676 332.2568936661408 625.7221622681676 333.2985603328075ZM681.2221622681676 380.40272699947417L681.2221622681676 380.40272699947417Q676.117995601501 380.40272699947417 673.2013289348342 377.71522699947417Q670.2846622681676 375.0068936661408 670.2846622681676 370.65272699947417L670.2846622681676 370.65272699947417Q670.2846622681676 366.15272699947417 672.367995601501 361.2152269994741Q674.4721622681676 356.2568936661408 676.492995601501 351.3818936661408Q678.5346622681676 346.5068936661408 678.5346622681676 342.6110603328075L678.5346622681676 342.6110603328075Q678.5346622681676 337.7985603328075 675.742995601501 335.4860603328075Q672.9721622681676 333.15272699947417 670.117995601501 331.21522699947417L670.117995601501 331.21522699947417Q666.680495601501 340.0485603328075 662.930495601501 348.0068936661408Q659.180495601501 355.96522699947417 656.7846622681676 360.0068936661408L656.7846622681676 360.0068936661408L655.430495601501 357.46522699947417Q657.5346622681676 353.5485603328075 660.9096622681676 346.0485603328075Q664.2846622681676 338.5485603328075 667.5763289348342 328.96522699947417L667.5763289348342 328.96522699947417Q666.0763289348342 327.46522699947417 666.0763289348342 325.3610603328075L666.0763289348342 325.3610603328075Q666.0763289348342 320.8610603328075 668.617995601501 318.00689366614085Q671.180495601501 315.15272699947417 672.367995601501 315.15272699947417L672.367995601501 315.15272699947417Q674.0346622681676 315.15272699947417 674.242995601501 316.5902269994741Q674.4721622681676 318.00689366614085 674.4721622681676 318.7568936661408L674.4721622681676 318.7568936661408Q674.4721622681676 319.5068936661408 673.6596622681676 321.6735603328075Q672.8263289348342 323.8610603328075 672.8263289348342 324.2985603328075L672.8263289348342 324.2985603328075Q672.8263289348342 326.40272699947417 675.1596622681676 328.1318936661408Q677.4721622681676 329.8610603328075 680.4721622681676 332.02772699947417Q683.4721622681676 334.21522699947417 685.805495601501 337.27772699947417Q688.117995601501 340.3610603328075 688.117995601501 345.15272699947417L688.117995601501 345.15272699947417Q688.117995601501 349.65272699947417 686.242995601501 354.2985603328075Q684.367995601501 358.96522699947417 682.492995601501 363.15272699947417Q680.617995601501 367.3610603328075 680.617995601501 370.5068936661408L680.617995601501 370.5068936661408Q680.617995601501 373.21522699947417 681.9721622681676 374.1110603328075Q683.3263289348342 375.0068936661408 685.117995601501 375.0068936661408L685.117995601501 375.0068936661408Q688.7221622681676 375.0068936661408 692.555495601501 372.7568936661408Q696.367995601501 370.5068936661408 699.9721622681676 367.0485603328075Q703.5763289348342 363.6110603328075 706.430495601501 359.77772699947417Q709.2846622681676 355.96522699947417 710.617995601501 352.65272699947417L710.617995601501 352.65272699947417L712.5763289348342 354.1527269994741Q709.7221622681676 360.46522699947417 704.7846622681676 366.52772699947417Q699.8263289348342 372.6110603328075 693.742995601501 376.5068936661408Q687.680495601501 380.40272699947417 681.2221622681676 380.40272699947417ZM720.2221622681676 383.40272699947417L720.2221622681676 383.40272699947417Q713.7846622681676 383.40272699947417 710.3263289348342 379.65272699947417Q706.867995601501 375.90272699947417 706.867995601501 368.5485603328075L706.867995601501 368.5485603328075Q706.867995601501 361.9652269994741 709.3471622681676 352.27772699947417Q711.8263289348342 342.6110603328075 715.5763289348342 332.40272699947417L715.5763289348342 332.40272699947417Q714.0763289348342 332.1110603328075 712.7221622681676 331.8818936661408Q711.367995601501 331.65272699947417 710.180495601501 331.21522699947417L710.180495601501 331.21522699947417L710.180495601501 328.5068936661408Q711.367995601501 328.65272699947417 713.0346622681676 328.7985603328075Q714.680495601501 328.96522699947417 716.7846622681676 329.1110603328075L716.7846622681676 329.1110603328075Q719.930495601501 321.0068936661408 723.5346622681676 313.4235603328075Q727.117995601501 305.8610603328075 730.6596622681676 299.9235603328075Q734.180495601501 294.0068936661408 737.4096622681676 290.4860603328075Q740.617995601501 286.96522699947417 742.867995601501 286.96522699947417L742.867995601501 286.96522699947417Q744.0763289348342 286.96522699947417 745.055495601501 287.7777269994741Q746.0346622681676 288.6110603328075 746.0346622681676 290.25689366614085L746.0346622681676 290.25689366614085Q746.0346622681676 292.7985603328075 742.867995601501 298.5902269994741Q739.7221622681676 304.3610603328075 735.0763289348342 312.2985603328075Q730.430495601501 320.2568936661408 726.0763289348342 329.5485603328075L726.0763289348342 329.5485603328075Q727.430495601501 329.5485603328075 728.8471622681676 329.5485603328075Q730.2846622681676 329.5485603328075 731.617995601501 329.5485603328075L731.617995601501 329.5485603328075Q736.5763289348342 329.5485603328075 742.055495601501 329.40272699947417Q747.5346622681676 329.2568936661408 753.0763289348342 328.65272699947417L753.0763289348342 328.65272699947417L753.0763289348342 331.3610603328075Q744.8263289348342 332.2568936661408 738.305495601501 332.71522699947417Q731.7846622681676 333.15272699947417 726.680495601501 333.15272699947417L726.680495601501 333.15272699947417Q726.0763289348342 333.15272699947417 725.555495601501 333.15272699947417Q725.0346622681676 333.15272699947417 724.430495601501 333.15272699947417L724.430495601501 333.15272699947417Q720.9721622681676 341.1110603328075 718.5763289348342 349.5068936661408Q716.180495601501 357.90272699947417 716.180495601501 365.8610603328075L716.180495601501 365.8610603328075Q716.180495601501 372.2985603328075 718.117995601501 375.09022699947417Q720.0763289348342 377.8610603328075 724.5763289348342 377.8610603328075L724.5763289348342 377.8610603328075Q732.367995601501 377.8610603328075 739.867995601501 370.96522699947417Q747.367995601501 364.0485603328075 753.0763289348342 352.21522699947417L753.0763289348342 352.21522699947417L755.0346622681676 353.71522699947417Q751.430495601501 362.1110603328075 745.9513289348342 368.8610603328075Q740.4721622681676 375.6110603328075 733.867995601501 379.5068936661408Q727.2846622681676 383.40272699947417 720.2221622681676 383.40272699947417ZM756.680495601501 418.50689366614085L756.680495601501 418.50689366614085Q752.930495601501 418.50689366614085 750.0763289348342 416.4860603328075Q747.2221622681676 414.4652269994741 747.2221622681676 410.5485603328075L747.2221622681676 410.5485603328075Q747.2221622681676 405.7568936661408 749.617995601501 402.00689366614085Q752.0346622681676 398.25689366614085 756.0763289348342 395.1110603328075Q760.117995601501 391.96522699947417 765.367995601501 389.1110603328075Q770.617995601501 386.2568936661408 776.3263289348342 383.40272699947417L776.3263289348342 383.40272699947417Q778.430495601501 377.8610603328075 780.5971622681676 371.02772699947417Q782.7846622681676 364.21522699947417 784.7221622681676 355.96522699947417L784.7221622681676 355.96522699947417Q779.930495601501 363.7568936661408 774.4513289348342 369.3818936661408Q768.9721622681676 375.0068936661408 762.8263289348342 375.0068936661408L762.8263289348342 375.0068936661408Q759.9721622681676 375.0068936661408 757.2013289348342 373.7360603328075Q754.430495601501 372.46522699947417 752.617995601501 369.7568936661408Q750.8263289348342 367.0485603328075 750.8263289348342 362.8610603328075L750.8263289348342 362.8610603328075Q750.8263289348342 358.65272699947417 752.242995601501 353.1110603328075Q753.680495601501 347.5485603328075 755.7846622681676 342.2985603328075Q757.867995601501 337.0485603328075 760.117995601501 333.6110603328075Q762.367995601501 330.15272699947417 764.0346622681676 330.15272699947417L764.0346622681676 330.15272699947417Q764.617995601501 330.15272699947417 766.2013289348342 330.6110603328075Q767.7846622681676 331.0485603328075 769.2013289348342 331.8818936661408Q770.617995601501 332.71522699947417 770.617995601501 333.6110603328075L770.617995601501 333.6110603328075Q769.2846622681676 335.5485603328075 767.617995601501 339.15272699947417Q765.9721622681676 342.7568936661408 764.4096622681676 347.1735603328075Q762.8263289348342 351.6110603328075 761.7846622681676 355.7985603328075Q760.7221622681676 360.0068936661408 760.7221622681676 363.0068936661408L760.7221622681676 363.0068936661408Q760.7221622681676 365.71522699947417 761.930495601501 367.3610603328075Q763.117995601501 369.0068936661408 766.117995601501 369.0068936661408L766.117995601501 369.0068936661408Q768.9721622681676 369.0068936661408 772.492995601501 366.2360603328075Q776.0346622681676 363.46522699947417 779.555495601501 359.1110603328075Q783.0763289348342 354.7568936661408 786.0763289348342 349.7985603328075L786.0763289348342 349.7985603328075Q786.5346622681676 348.15272699947417 786.9096622681676 346.4235603328075Q787.2846622681676 344.71522699947417 787.5763289348342 342.90272699947417L787.5763289348342 342.90272699947417Q788.0346622681676 340.7985603328075 789.742995601501 338.02772699947417Q791.4721622681676 335.2568936661408 795.2221622681676 335.2568936661408L795.2221622681676 335.2568936661408Q795.9721622681676 335.2568936661408 796.7221622681676 335.3402269994741Q797.4721622681676 335.4027269994741 798.367995601501 335.71522699947417L798.367995601501 335.71522699947417Q798.367995601501 338.1110603328075 796.9513289348342 344.6318936661408Q795.5346622681676 351.15272699947417 792.9096622681676 359.8610603328075Q790.2846622681676 368.5485603328075 786.680495601501 377.71522699947417L786.680495601501 377.71522699947417Q793.7221622681676 375.0068936661408 800.4721622681676 368.77772699947417Q807.2221622681676 362.5485603328075 811.430495601501 352.21522699947417L811.430495601501 352.21522699947417L813.367995601501 353.71522699947417Q811.117995601501 360.90272699947417 806.555495601501 366.2360603328075Q801.9721622681676 371.5485603328075 796.2846622681676 375.3818936661408Q790.5763289348342 379.21522699947417 785.0346622681676 381.75689366614085L785.0346622681676 381.75689366614085Q781.117995601501 391.3610603328075 776.555495601501 399.75689366614085Q771.9721622681676 408.1527269994741 766.9513289348342 413.34022699947417Q761.930495601501 418.50689366614085 756.680495601501 418.50689366614085ZM755.930495601501 413.7152269994741L755.930495601501 413.7152269994741Q758.180495601501 413.7152269994741 763.492995601501 407.7777269994741Q768.8263289348342 401.8610603328075 774.8263289348342 387.0068936661408L774.8263289348342 387.0068936661408Q768.680495601501 390.2985603328075 763.430495601501 393.52772699947417Q758.180495601501 396.75689366614085 755.0346622681676 400.50689366614085Q751.867995601501 404.2568936661408 751.867995601501 409.2152269994741L751.867995601501 409.2152269994741Q751.867995601501 410.4027269994741 752.7846622681676 412.0485603328075Q753.680495601501 413.7152269994741 755.930495601501 413.7152269994741ZM850.867995601501 382.3610603328075L850.867995601501 382.3610603328075Q846.2221622681676 382.3610603328075 844.492995601501 378.09022699947417Q842.7846622681675 373.7985603328075 842.7846622681675 367.7985603328075L842.7846622681675 367.7985603328075Q842.7846622681675 364.7985603328075 843.0763289348342 361.27772699947417Q843.367995601501 357.7568936661408 843.8263289348342 354.2985603328075L843.8263289348342 354.2985603328075Q840.5346622681676 360.90272699947417 836.7013289348342 367.0485603328075Q832.867995601501 373.21522699947417 828.680495601501 377.1110603328075Q824.4721622681676 381.0068936661408 819.8263289348342 381.0068936661408L819.8263289348342 381.0068936661408Q814.867995601501 381.0068936661408 811.7221622681676 376.5068936661408Q808.5763289348342 372.00689366614085 808.5763289348342 365.8610603328075L808.5763289348342 365.8610603328075Q808.5763289348342 361.5068936661408 809.992995601501 355.7985603328075Q811.430495601501 350.1110603328075 813.5346622681676 344.5485603328075Q815.617995601501 339.0068936661408 817.867995601501 335.4027269994741Q820.117995601501 331.7985603328075 821.7846622681676 331.7985603328075L821.7846622681676 331.7985603328075Q822.5346622681676 331.7985603328075 824.930495601501 332.6318936661408Q827.3263289348342 333.46522699947417 827.3263289348342 334.7985603328075L827.3263289348342 334.7985603328075Q825.680495601501 337.3610603328075 823.2846622681676 342.6110603328075Q820.867995601501 347.8610603328075 819.0763289348342 353.9235603328075Q817.2846622681676 360.0068936661408 817.2846622681676 364.96522699947417L817.2846622681676 364.96522699947417Q817.2846622681676 366.15272699947417 817.5763289348342 368.6318936661408Q817.867995601501 371.1110603328075 818.992995601501 373.0485603328075Q820.117995601501 375.0068936661408 822.5346622681676 375.0068936661408L822.5346622681676 375.0068936661408Q825.9721622681676 375.0068936661408 829.867995601501 370.65272699947417Q833.7846622681676 366.2985603328075 837.680495601501 359.71522699947417Q841.5763289348342 353.1110603328075 845.0346622681676 346.3610603328075L845.0346622681676 346.3610603328075Q846.2221622681676 340.21522699947417 847.055495601501 337.3610603328075Q847.867995601501 334.5068936661408 848.7846622681675 333.6735603328075Q849.680495601501 332.8610603328075 851.0346622681676 332.8610603328075L851.0346622681676 332.8610603328075Q852.9721622681676 332.8610603328075 854.180495601501 333.6735603328075Q855.3679956015009 334.5068936661408 855.3679956015009 336.1527269994741L855.3679956015009 336.1527269994741Q855.3679956015009 336.46522699947417 855.305495601501 336.9027269994741Q855.2221622681675 337.3610603328075 855.0763289348342 337.7985603328075L855.0763289348342 337.7985603328075Q854.0346622681676 341.40272699947417 853.055495601501 346.8818936661408Q852.0763289348342 352.3610603328075 851.4721622681676 358.21522699947417Q850.867995601501 364.0485603328075 850.867995601501 369.15272699947417L850.867995601501 369.15272699947417Q850.867995601501 372.6110603328075 851.617995601501 374.5485603328075Q852.367995601501 376.5068936661408 854.180495601501 376.5068936661408L854.180495601501 376.5068936661408Q856.430495601501 376.5068936661408 859.430495601501 373.7360603328075Q862.430495601501 370.96522699947417 865.6596622681676 366.3818936661408Q868.867995601501 361.7985603328075 871.9513289348342 356.40272699947417Q875.0346622681676 351.0068936661408 877.430495601501 345.7568936661408L877.430495601501 345.7568936661408Q877.430495601501 337.96522699947417 878.555495601501 333.84022699947417Q879.680495601501 329.71522699947417 881.4096622681675 328.21522699947417Q883.117995601501 326.71522699947417 884.930495601501 326.71522699947417L884.930495601501 326.71522699947417Q887.7846622681675 326.71522699947417 889.055495601501 328.7360603328075Q890.3263289348342 330.7568936661408 890.3263289348342 332.40272699947417L890.3263289348342 332.40272699947417Q890.3263289348342 333.46522699947417 889.867995601501 334.59022699947417Q889.430495601501 335.71522699947417 888.680495601501 337.0485603328075L888.680495601501 337.0485603328075Q887.4721622681676 339.2985603328075 886.2846622681675 342.84022699947417Q885.0763289348342 346.3610603328075 885.0763289348342 352.50689366614085L885.0763289348342 352.50689366614085Q885.0763289348342 354.90272699947417 885.5346622681676 357.6110603328075Q885.9721622681676 360.2985603328075 887.4721622681676 362.1110603328075Q888.9721622681676 363.90272699947417 892.117995601501 363.90272699947417L892.117995601501 363.90272699947417Q895.2846622681676 363.90272699947417 898.2013289348342 361.4235603328075Q901.117995601501 358.96522699947417 903.9721622681676 352.7985603328075L903.9721622681676 352.7985603328075L905.930495601501 354.2985603328075Q902.617995601501 361.7985603328075 898.6596622681675 364.3610603328075Q894.680495601501 366.90272699947417 891.0763289348342 366.90272699947417L891.0763289348342 366.90272699947417Q886.430495601501 366.90272699947417 883.2013289348342 363.7568936661408Q879.9721622681675 360.6110603328075 878.4721622681675 354.2985603328075L878.4721622681675 354.2985603328075Q874.7221622681676 361.2152269994741 870.0763289348342 367.65272699947417Q865.430495601501 374.1110603328075 860.4721622681676 378.2360603328075Q855.5346622681676 382.3610603328075 850.867995601501 382.3610603328075ZM908.3263289348342 383.5485603328075L908.3263289348342 383.5485603328075Q903.680495601501 383.5485603328075 900.4513289348342 380.4860603328075Q897.2221622681675 377.40272699947417 897.2221622681675 371.1110603328075L897.2221622681675 371.1110603328075Q897.2221622681675 365.71522699947417 899.617995601501 359.4860603328075Q902.0346622681675 353.25689366614085 906.2221622681676 347.1735603328075Q910.430495601501 341.1110603328075 915.742995601501 336.09022699947417Q921.0763289348342 331.0485603328075 926.992995601501 328.0485603328075Q932.930495601501 325.0485603328075 938.7846622681676 325.0485603328075L938.7846622681676 325.0485603328075Q944.617995601501 325.0485603328075 948.5346622681676 328.1318936661408Q952.430495601501 331.21522699947417 952.430495601501 336.2985603328075L952.430495601501 336.2985603328075Q952.430495601501 340.0485603328075 950.4096622681675 341.40272699947417Q948.367995601501 342.7568936661408 945.0763289348342 342.7568936661408L945.0763289348342 342.7568936661408Q945.367995601501 341.5485603328075 945.5971622681675 340.1318936661408Q945.8263289348342 338.71522699947417 945.8263289348342 337.5068936661408L945.8263289348342 337.5068936661408Q945.8263289348342 334.0485603328075 944.180495601501 331.59022699947417Q942.5346622681675 329.1110603328075 938.4721622681676 329.1110603328075L938.4721622681676 329.1110603328075Q934.2846622681676 329.1110603328075 929.930495601501 332.02772699947417Q925.5763289348342 334.96522699947417 921.5346622681676 339.84022699947417Q917.4721622681675 344.71522699947417 914.3263289348342 350.40272699947417Q911.180495601501 356.1110603328075 909.367995601501 361.65272699947417Q907.5763289348342 367.21522699947417 907.5763289348342 371.5485603328075L907.5763289348342 371.5485603328075Q907.5763289348342 377.40272699947417 911.6179956015009 377.40272699947417L911.6179956015009 377.40272699947417Q915.0763289348342 377.40272699947417 919.117995601501 374.1735603328075Q923.180495601501 370.96522699947417 927.4513289348342 365.9235603328075Q931.7221622681675 360.90272699947417 935.617995601501 355.5068936661408Q939.5346622681675 350.1110603328075 942.5346622681675 345.6110603328075L942.5346622681675 345.6110603328075Q943.117995601501 344.71522699947417 943.2846622681676 344.71522699947417L943.2846622681676 344.71522699947417Q944.180495601501 344.8610603328075 945.5971622681675 345.2985603328075Q947.0346622681675 345.7568936661408 948.0763289348342 346.5068936661408Q949.1179956015009 347.2568936661408 949.1179956015009 348.46522699947417L949.1179956015009 348.46522699947417Q949.1179956015009 349.7985603328075 947.7846622681676 352.1318936661408Q946.430495601501 354.46522699947417 944.7846622681676 357.46522699947417Q943.117995601501 360.46522699947417 941.7846622681676 363.5277269994741Q940.430495601501 366.6110603328075 940.430495601501 369.2985603328075L940.430495601501 369.2985603328075Q940.430495601501 371.5485603328075 941.617995601501 373.7360603328075Q942.8263289348342 375.90272699947417 945.5346622681675 375.90272699947417L945.5346622681675 375.90272699947417Q949.5763289348342 375.90272699947417 956.180495601501 369.9860603328075Q962.7846622681675 364.0485603328075 969.5346622681675 352.21522699947417L969.5346622681675 352.21522699947417L971.0346622681675 353.71522699947417Q967.8679956015009 361.7985603328075 962.930495601501 367.96522699947417Q957.9721622681675 374.1110603328075 952.3471622681675 377.5485603328075Q946.7221622681676 381.0068936661408 941.3263289348342 381.0068936661408L941.3263289348342 381.0068936661408Q935.7846622681676 381.0068936661408 933.1596622681675 377.71522699947417Q930.5346622681676 374.40272699947417 930.5346622681676 370.5068936661408L930.5346622681676 370.5068936661408Q930.5346622681676 369.6110603328075 930.680495601501 368.4860603328075Q930.8263289348342 367.3610603328075 930.9721622681676 366.15272699947417L930.9721622681676 366.15272699947417Q924.5346622681676 374.8610603328075 919.2013289348342 379.21522699947417Q913.867995601501 383.5485603328075 908.3263289348342 383.5485603328075ZM976.2846622681676 382.3610603328075L976.2846622681676 382.3610603328075Q971.617995601501 382.3610603328075 969.8263289348342 377.77772699947417Q968.0346622681676 373.21522699947417 968.0346622681676 365.8610603328075L968.0346622681676 365.8610603328075Q968.0346622681676 365.5485603328075 968.180495601501 361.1318936661408Q968.3263289348342 356.71522699947417 968.930495601501 346.21522699947417L968.930495601501 346.21522699947417Q969.2221622681675 342.15272699947417 969.8263289348342 340.65272699947417Q970.430495601501 339.15272699947417 973.7221622681675 339.15272699947417L973.7221622681675 339.15272699947417Q976.2846622681676 339.15272699947417 976.9513289348342 340.1318936661408Q977.617995601501 341.1110603328075 977.617995601501 343.96522699947417L977.617995601501 343.96522699947417Q977.617995601501 348.90272699947417 976.9513289348342 355.59022699947417Q976.2846622681676 362.2568936661408 976.2846622681676 368.1110603328075L976.2846622681676 368.1110603328075Q976.2846622681676 372.46522699947417 977.0346622681675 374.4860603328075Q977.7846622681676 376.5068936661408 979.7221622681676 376.5068936661408L979.7221622681676 376.5068936661408Q982.430495601501 376.5068936661408 985.7221622681676 373.4235603328075Q989.0346622681676 370.3610603328075 992.4721622681675 365.34022699947417Q995.930495601501 360.2985603328075 998.992995601501 354.6110603328075Q1002.0763289348342 348.90272699947417 1004.4721622681676 343.65272699947417L1004.4721622681676 343.65272699947417Q1004.7846622681676 333.46522699947417 1006.6596622681675 330.09022699947417Q1008.5346622681675 326.71522699947417 1011.367995601501 326.71522699947417L1011.367995601501 326.71522699947417Q1014.2221622681675 326.71522699947417 1015.492995601501 328.7360603328075Q1016.7846622681676 330.7568936661408 1016.7846622681676 332.40272699947417L1016.7846622681676 332.40272699947417Q1016.7846622681676 334.3610603328075 1015.492995601501 336.46522699947417Q1014.2221622681675 338.5485603328075 1012.867995601501 342.15272699947417Q1011.5346622681675 345.7568936661408 1011.5346622681675 352.50689366614085L1011.5346622681675 352.50689366614085Q1011.5346622681675 354.90272699947417 1011.9721622681676 357.6110603328075Q1012.430495601501 360.2985603328075 1013.930495601501 362.1110603328075Q1015.430495601501 363.90272699947417 1018.5763289348342 363.90272699947417L1018.5763289348342 363.90272699947417Q1021.7221622681676 363.90272699947417 1024.6596622681677 361.4235603328075Q1027.5763289348342 358.96522699947417 1030.4304956015008 352.7985603328075L1030.4304956015008 352.7985603328075L1032.367995601501 354.2985603328075Q1029.0763289348342 361.7985603328075 1025.0971622681677 364.3610603328075Q1021.1179956015009 366.90272699947417 1017.5346622681675 366.90272699947417L1017.5346622681675 366.90272699947417Q1012.5763289348342 366.90272699947417 1009.2846622681676 363.2985603328075Q1005.9721622681676 359.71522699947417 1004.930495601501 352.3610603328075L1004.930495601501 352.3610603328075Q1001.3263289348342 359.71522699947417 996.4513289348342 366.52772699947417Q991.5763289348342 373.3610603328075 986.3263289348342 377.8610603328075Q981.0763289348342 382.3610603328075 976.2846622681676 382.3610603328075ZM1043.7846622681677 383.1110603328075L1043.7846622681677 383.1110603328075Q1034.617995601501 383.1110603328075 1030.055495601501 378.09022699947417Q1025.4721622681675 373.0485603328075 1025.4721622681675 365.71522699947417L1025.4721622681675 365.71522699947417Q1025.4721622681675 358.96522699947417 1028.8471622681675 351.46522699947417Q1032.2221622681677 343.96522699947417 1037.8471622681675 337.3610603328075Q1043.4721622681677 330.7568936661408 1050.2221622681675 326.6318936661408Q1056.9721622681675 322.5068936661408 1063.5763289348342 322.5068936661408L1063.5763289348342 322.5068936661408Q1067.0346622681677 322.5068936661408 1069.9513289348342 324.2985603328075Q1072.867995601501 326.1110603328075 1072.867995601501 331.65272699947417L1072.867995601501 331.65272699947417Q1072.867995601501 337.3610603328075 1069.4929956015008 342.38189366614085Q1066.117995601501 347.40272699947417 1060.6596622681677 351.2985603328075Q1055.180495601501 355.21522699947417 1048.6596622681675 357.6735603328075Q1042.117995601501 360.15272699947417 1035.680495601501 360.7568936661408L1035.680495601501 360.7568936661408Q1035.367995601501 362.2568936661408 1035.2221622681675 363.6110603328075Q1035.0763289348342 364.96522699947417 1035.0763289348342 366.15272699947417L1035.0763289348342 366.15272699947417Q1035.0763289348342 368.40272699947417 1035.5971622681677 370.65272699947417Q1036.117995601501 372.90272699947417 1037.4721622681677 374.77772699947417Q1038.8263289348342 376.65272699947417 1041.1596622681675 377.71522699947417Q1043.4721622681677 378.7568936661408 1046.930495601501 378.7568936661408L1046.930495601501 378.7568936661408Q1053.367995601501 378.7568936661408 1059.680495601501 375.09022699947417Q1065.9721622681675 371.40272699947417 1071.367995601501 365.40272699947417Q1076.7846622681675 359.40272699947417 1080.5346622681675 352.21522699947417L1080.5346622681675 352.21522699947417L1082.3263289348342 353.5485603328075Q1078.2846622681675 362.5485603328075 1072.055495601501 369.15272699947417Q1065.8263289348342 375.7568936661408 1058.5554956015008 379.4235603328075Q1051.2846622681677 383.1110603328075 1043.7846622681677 383.1110603328075ZM1036.430495601501 357.90272699947417L1036.430495601501 357.90272699947417Q1040.4721622681677 356.5485603328075 1045.5763289348342 353.9235603328075Q1050.6804956015008 351.2985603328075 1055.4096622681675 347.71522699947417Q1060.1179956015008 344.1110603328075 1063.2013289348342 339.7568936661408Q1066.2846622681675 335.4027269994741 1066.2846622681675 330.6110603328075L1066.2846622681675 330.6110603328075Q1066.2846622681675 328.96522699947417 1065.680495601501 328.0485603328075Q1065.0763289348342 327.15272699947417 1063.117995601501 327.15272699947417L1063.117995601501 327.15272699947417Q1059.5346622681675 327.15272699947417 1055.4721622681675 329.9235603328075Q1051.430495601501 332.71522699947417 1047.6804956015008 337.21522699947417Q1043.930495601501 341.71522699947417 1040.930495601501 347.1110603328075Q1037.930495601501 352.50689366614085 1036.430495601501 357.90272699947417Z " fill="#6e5b49" transform="matrix(0.8084438622058778,0,0,0.8084438622058779,0,22.293951469305313)"/></g></svg>